<svg width="512" height="512" viewBox="0 0 512 512" fill="none" xmlns="http://www.w3.org/2000/svg">
<path d="M397 20H115C62.5329 20 20 62.5329 20 115V397C20 449.467 62.5329 492 115 492H397C449.467 492 492 449.467 492 397V115C492 62.5329 449.467 20 397 20Z" stroke="#D4C4A8" stroke-width="6"/>
<g opacity="0.5">
<path d="M256 416C344.366 416 416 344.366 416 256C416 167.634 344.366 96 256 96C167.634 96 96 167.634 96 256C96 344.366 167.634 416 256 416Z" stroke="#C4B896" stroke-width="3" stroke-dasharray="8 8"/>
<path d="M256 401C336.081 401 401 336.081 401 256C401 175.919 336.081 111 256 111C175.919 111 111 175.919 111 256C111 336.081 175.919 401 256 401Z" stroke="#B8A882"/>
<path d="M256 96L276 236H256V96Z" fill="#C4B896"/>
<path d="M256 96L236 236H256V96Z" fill="#B8A882"/>
<path d="M416 256L276 236V256H416Z" fill="#C4B896"/>
<path d="M416 256L276 276V256H416Z" fill="#B8A882"/>
<path d="M256 416L276 276H256V416Z" fill="#C4B896"/>
<path d="M256 416L236 276H256V416Z" fill="#B8A882"/>
<path d="M96 256L236 236V256H96Z" fill="#C4B896"/>
<path d="M96 256L236 276V256H96Z" fill="#B8A882"/>
<path d="M256 236L346 166L276 256L256 236Z" fill="#D4C4A8"/>
<path d="M276 256L346 346L256 276L276 256Z" fill="#D4C4A8"/>
<path d="M256 276L166 346L236 256L256 276Z" fill="#D4C4A8"/>
<path d="M236 256L166 166L256 236L236 256Z" fill="#D4C4A8"/>
<path d="M256 264C260.418 264 264 260.418 264 256C264 251.582 260.418 248 256 248C251.582 248 248 251.582 248 256C248 260.418 251.582 264 256 264Z" fill="#A89888"/>
</g>
<path d="M350 116H322C318.686 116 316 118.686 316 122V230C316 233.314 318.686 236 322 236H350C353.314 236 356 233.314 356 230V122C356 118.686 353.314 116 350 116Z" fill="#26C6F6" stroke="#0277BD" stroke-width="5" stroke-linejoin="round"/>
<path d="M326 136C332.667 129.333 339.333 129.333 346 136" stroke="#E1F5FE" stroke-width="3" stroke-linecap="round"/>
<path d="M326 176C332.667 169.333 339.333 169.333 346 176" stroke="#E1F5FE" stroke-width="3" stroke-linecap="round"/>
<path d="M326 216C332.667 209.333 339.333 209.333 346 216" stroke="#E1F5FE" stroke-width="3" stroke-linecap="round"/>
<path d="M116 156H196V196H156V276H116V156Z" fill="#57C85A" stroke="#1B5E20" stroke-width="5" stroke-linejoin="round"/>
<path d="M136 168L144 184H128L136 168Z" fill="#145A18"/>
<path d="M176 168L184 184H168L176 168Z" fill="#145A18"/>
<path d="M136 208L144 224H128L136 208Z" fill="#145A18"/>
<path d="M136 248L144 264H128L136 248Z" fill="#145A18"/>
<path d="M350 276H282C278.686 276 276 278.686 276 282V350C276 353.314 278.686 356 282 356H350C353.314 356 356 353.314 356 350V282C356 278.686 353.314 276 350 276Z" fill="#EF5350" stroke="#B71C1C" stroke-width="5" stroke-linejoin="round"/>
<path d="M296 288L304 296H302V302H290V296H288L296 288Z" fill="#FFEBEE"/>
<path d="M336 288L344 296H342V302H330V296H328L336 288Z" fill="#FFEBEE"/>
<path d="M296 328L304 336H302V342H290V336H288L296 328Z" fill="#FFEBEE"/>
<path d="M336 328L344 336H342V342H330V336H328L336 328Z" fill="#FFEBEE"/>
<path d="M191 367H119C116.791 367 115 368.791 115 371V403C115 405.209 116.791 407 119 407H191C193.209 407 195 405.209 195 403V371C195 368.791 193.209 367 191 367Z" fill="#FFF9C4" fill-opacity="0.4" stroke="#FBC02D" stroke-width="4" stroke-dasharray="6 4"/>
<path d="M184 393.5C186.485 393.5 188.5 391.485 188.5 389C188.5 386.515 186.485 384.5 184 384.5C181.515 384.5 179.5 386.515 179.5 389C179.5 391.485 181.515 393.5 184 393.5Z" fill="#3E2723"/>
<path d="M203 399.5C204.381 399.5 205.5 398.381 205.5 397C205.5 395.619 204.381 394.5 203 394.5C201.619 394.5 200.5 395.619 200.5 397C200.5 398.381 201.619 399.5 203 399.5Z" fill="#3E2723"/>
<path d="M309.36 249.294C289.154 254.401 268.259 260.712 248.389 267.98C263.751 266.19 278.469 265.183 293.743 264.234C266.973 289.056 236.956 312.688 202.757 333.331C187.63 300.715 188.951 261.322 206.261 224.881C212.341 236.57 219.021 247.897 226.302 258.862C221.995 240.983 219.443 222.437 218.559 204.067C226.553 192.153 236.17 180.835 247.411 170.111C246.688 182.363 246.565 194.252 247.555 206.257C252.318 187.629 259.817 169.712 268.428 151.912C279.36 144.132 291.36 136.889 303.783 130.965C300.749 143.824 298.826 156.8 298.059 169.471C305.938 153.295 314.928 137.235 325.586 121.35C354.836 110.39 385.781 104.708 415.509 105.275C405.433 126.322 393.223 146.295 379.944 165.731C360.25 171.317 340.979 178.223 322.22 185.607C338.226 183.035 353.589 181.245 369.418 180.355C362.934 188.601 356.405 197.268 349.964 205.094C331.205 212.479 312.314 221.124 293.89 230.669C307.717 227.443 320.944 224.58 334.682 222.195C332.15 224.905 329.618 227.615 327.041 230.745C321.889 237.006 315.624 243.15 309.36 249.294Z" fill="white"/>
<path d="M309.36 249.294C289.154 254.401 268.259 260.712 248.389 267.98C263.751 266.19 278.469 265.183 293.743 264.234C266.973 289.056 236.956 312.688 202.757 333.331C187.63 300.715 188.951 261.322 206.261 224.881C212.341 236.57 219.021 247.897 226.302 258.862C221.995 240.983 219.443 222.437 218.559 204.067C226.553 192.153 236.17 180.835 247.411 170.111C246.688 182.363 246.565 194.252 247.555 206.257C252.318 187.629 259.817 169.712 268.428 151.912C279.36 144.132 291.36 136.889 303.783 130.965C300.749 143.824 298.826 156.8 298.059 169.471C305.938 153.295 314.928 137.235 325.586 121.35C354.836 110.39 385.781 104.708 415.509 105.275C405.433 126.322 393.223 146.295 379.944 165.731C360.25 171.317 340.979 178.223 322.22 185.607C338.226 183.035 353.589 181.245 369.418 180.355C362.934 188.601 356.405 197.268 349.964 205.094C331.205 212.479 312.314 221.124 293.89 230.669C307.717 227.443 320.944 224.58 334.682 222.195C332.15 224.905 329.618 227.615 327.041 230.745C321.889 237.006 315.624 243.15 309.36 249.294Z" fill="white"/>
<path d="M396.979 114.409C385.049 120.806 367.755 130.039 348.951 142.937C330.191 155.416 309.92 171.559 290.543 189.921C281.133 199.131 271.634 209.182 262.649 219.711C253.663 230.24 245.792 240.886 237.832 252.372C230.473 263.497 223.626 275.1 217.337 286.762C211.047 298.423 205.871 310.202 201.853 321.677C194.126 341.685 189.226 361.565 185.705 379.04C185.396 381.982 187.359 384.737 190.568 386.348C194.779 367.67 200.968 346.226 210.586 324.292C215.161 312.875 220.85 301.576 227.095 290.334C233.341 279.093 240.143 267.91 247.502 256.785C254.861 245.661 262.733 235.015 271.719 224.486C280.103 214.318 289.045 204.209 298.455 194.999C316.718 176.521 335.875 160.26 353.61 146.825C371.3 133.81 387.056 123.141 398.473 116.265C409.89 109.39 416.5 105.41 416.5 105.41C416.544 104.99 408.909 108.013 396.979 114.409Z" fill="#795548"/>
</svg>
