<svg width="512" height="512" viewBox="0 0 512 512" fill="none" xmlns="http://www.w3.org/2000/svg">
<g clip-path="url(#clip0_801_51)">
<path d="M397 0H115C51.4873 0 0 51.4873 0 115V397C0 460.513 51.4873 512 115 512H397C460.513 512 512 460.513 512 397V115C512 51.4873 460.513 0 397 0Z" fill="url(#paint0_linear_801_51)"/>
<path opacity="0.06" d="M397 0H115C51.4873 0 0 51.4873 0 115V397C0 460.513 51.4873 512 115 512H397C460.513 512 512 460.513 512 397V115C512 51.4873 460.513 0 397 0Z" stroke="black"/>
<path d="M397 20H115C62.5329 20 20 62.5329 20 115V397C20 449.467 62.5329 492 115 492H397C449.467 492 492 449.467 492 397V115C492 62.5329 449.467 20 397 20Z" stroke="#D4C4A8" stroke-width="6"/>
<g opacity="0.5">
<path d="M256 416C344.366 416 416 344.366 416 256C416 167.634 344.366 96 256 96C167.634 96 96 167.634 96 256C96 344.366 167.634 416 256 416Z" stroke="#C4B896" stroke-width="3" stroke-dasharray="8 8"/>
<path d="M256 401C336.081 401 401 336.081 401 256C401 175.919 336.081 111 256 111C175.919 111 111 175.919 111 256C111 336.081 175.919 401 256 401Z" stroke="#B8A882"/>
<path d="M256 96L276 236H256V96Z" fill="#C4B896"/>
<path d="M256 96L236 236H256V96Z" fill="#B8A882"/>
<path d="M416 256L276 236V256H416Z" fill="#C4B896"/>
<path d="M416 256L276 276V256H416Z" fill="#B8A882"/>
<path d="M256 416L276 276H256V416Z" fill="#C4B896"/>
<path d="M256 416L236 276H256V416Z" fill="#B8A882"/>
<path d="M96 256L236 236V256H96Z" fill="#C4B896"/>
<path d="M96 256L236 276V256H96Z" fill="#B8A882"/>
<path d="M256 236L346 166L276 256L256 236Z" fill="#D4C4A8"/>
<path d="M276 256L346 346L256 276L276 256Z" fill="#D4C4A8"/>
<path d="M256 276L166 346L236 256L256 276Z" fill="#D4C4A8"/>
<path d="M236 256L166 166L256 236L236 256Z" fill="#D4C4A8"/>
<path d="M256 264C260.418 264 264 260.418 264 256C264 251.582 260.418 248 256 248C251.582 248 248 251.582 248 256C248 260.418 251.582 264 256 264Z" fill="#A89888"/>
</g>
<path d="M350 116H322C318.686 116 316 118.686 316 122V230C316 233.314 318.686 236 322 236H350C353.314 236 356 233.314 356 230V122C356 118.686 353.314 116 350 116Z" fill="#26C6F6" stroke="#0277BD" stroke-width="5" stroke-linejoin="round"/>
<path d="M326 136C332.667 129.333 339.333 129.333 346 136" stroke="#E1F5FE" stroke-width="3" stroke-linecap="round"/>
<path d="M326 176C332.667 169.333 339.333 169.333 346 176" stroke="#E1F5FE" stroke-width="3" stroke-linecap="round"/>
<path d="M326 216C332.667 209.333 339.333 209.333 346 216" stroke="#E1F5FE" stroke-width="3" stroke-linecap="round"/>
<path d="M116 156H196V196H156V276H116V156Z" fill="#57C85A" stroke="#1B5E20" stroke-width="5" stroke-linejoin="round"/>
<path d="M136 168L144 184H128L136 168Z" fill="#145A18"/>
<path d="M176 168L184 184H168L176 168Z" fill="#145A18"/>
<path d="M136 208L144 224H128L136 208Z" fill="#145A18"/>
<path d="M136 248L144 264H128L136 248Z" fill="#145A18"/>
<path d="M350 276H282C278.686 276 276 278.686 276 282V350C276 353.314 278.686 356 282 356H350C353.314 356 356 353.314 356 350V282C356 278.686 353.314 276 350 276Z" fill="#EF5350" stroke="#B71C1C" stroke-width="5" stroke-linejoin="round"/>
<path d="M296 288L304 296H302V302H290V296H288L296 288Z" fill="#FFEBEE"/>
<path d="M336 288L344 296H342V302H330V296H328L336 288Z" fill="#FFEBEE"/>
<path d="M296 328L304 336H302V342H290V336H288L296 328Z" fill="#FFEBEE"/>
<path d="M336 328L344 336H342V342H330V336H328L336 328Z" fill="#FFEBEE"/>
<path d="M171 367H99C96.7909 367 95 368.791 95 371V403C95 405.209 96.7909 407 99 407H171C173.209 407 175 405.209 175 403V371C175 368.791 173.209 367 171 367Z" fill="#FFF9C4" fill-opacity="0.4" stroke="#FBC02D" stroke-width="4" stroke-dasharray="6 4"/>
<path d="M164 393.5C166.485 393.5 168.5 391.485 168.5 389C168.5 386.515 166.485 384.5 164 384.5C161.515 384.5 159.5 386.515 159.5 389C159.5 391.485 161.515 393.5 164 393.5Z" fill="#3E2723"/>
<path d="M183 399.5C184.381 399.5 185.5 398.381 185.5 397C185.5 395.619 184.381 394.5 183 394.5C181.619 394.5 180.5 395.619 180.5 397C180.5 398.381 181.619 399.5 183 399.5Z" fill="#3E2723"/>
<path d="M289.36 249.294C269.154 254.401 248.259 260.712 228.389 267.98C243.751 266.19 258.469 265.183 273.743 264.234C246.973 289.056 216.956 312.688 182.757 333.331C167.63 300.715 168.951 261.322 186.261 224.881C192.341 236.57 199.021 247.897 206.302 258.862C201.995 240.983 199.443 222.437 198.559 204.067C206.553 192.153 216.17 180.835 227.411 170.111C226.688 182.363 226.565 194.252 227.555 206.257C232.318 187.629 239.817 169.712 248.428 151.912C259.36 144.132 271.36 136.889 283.783 130.965C280.749 143.824 278.826 156.8 278.059 169.471C285.938 153.295 294.928 137.235 305.586 121.35C334.836 110.39 365.781 104.708 395.509 105.275C385.433 126.322 373.223 146.295 359.944 165.731C340.25 171.317 320.979 178.223 302.22 185.607C318.226 183.035 333.589 181.245 349.418 180.355C342.934 188.601 336.405 197.268 329.964 205.094C311.205 212.479 292.314 221.124 273.89 230.669C287.717 227.443 300.944 224.58 314.682 222.195C312.15 224.905 309.618 227.615 307.041 230.745C301.889 237.006 295.624 243.15 289.36 249.294Z" fill="white"/>
<path d="M289.36 249.294C269.154 254.401 248.259 260.712 228.389 267.98C243.751 266.19 258.469 265.183 273.743 264.234C246.973 289.056 216.956 312.688 182.757 333.331C167.63 300.715 168.951 261.322 186.261 224.881C192.341 236.57 199.021 247.897 206.302 258.862C201.995 240.983 199.443 222.437 198.559 204.067C206.553 192.153 216.17 180.835 227.411 170.111C226.688 182.363 226.565 194.252 227.555 206.257C232.318 187.629 239.817 169.712 248.428 151.912C259.36 144.132 271.36 136.889 283.783 130.965C280.749 143.824 278.826 156.8 278.059 169.471C285.938 153.295 294.928 137.235 305.586 121.35C334.836 110.39 365.781 104.708 395.509 105.275C385.433 126.322 373.223 146.295 359.944 165.731C340.25 171.317 320.979 178.223 302.22 185.607C318.226 183.035 333.589 181.245 349.418 180.355C342.934 188.601 336.405 197.268 329.964 205.094C311.205 212.479 292.314 221.124 273.89 230.669C287.717 227.443 300.944 224.58 314.682 222.195C312.15 224.905 309.618 227.615 307.041 230.745C301.889 237.006 295.624 243.15 289.36 249.294Z" fill="white"/>
<path d="M376.979 114.409C365.049 120.806 347.755 130.039 328.951 142.937C310.191 155.416 289.92 171.559 270.543 189.921C261.133 199.131 251.634 209.182 242.649 219.711C233.663 230.24 225.792 240.886 217.832 252.372C210.473 263.497 203.626 275.1 197.337 286.762C191.047 298.423 185.871 310.202 181.853 321.677C174.126 341.685 169.226 361.565 165.705 379.04C165.396 381.982 167.359 384.737 170.568 386.348C174.779 367.67 180.968 346.226 190.586 324.292C195.161 312.875 200.85 301.576 207.095 290.334C213.341 279.093 220.143 267.91 227.502 256.785C234.861 245.661 242.733 235.015 251.719 224.486C260.103 214.318 269.045 204.209 278.455 194.999C296.718 176.521 315.875 160.26 333.61 146.825C351.3 133.81 367.056 123.141 378.473 116.265C389.89 109.39 396.5 105.41 396.5 105.41C396.544 104.99 388.909 108.013 376.979 114.409Z" fill="#795548"/>
</g>
<defs>
<linearGradient id="paint0_linear_801_51" x1="0" y1="0" x2="51200" y2="51200" gradientUnits="userSpaceOnUse">
<stop stop-color="#FAF3E0"/>
<stop offset="0.5" stop-color="#F4E8C8"/>
<stop offset="1" stop-color="#EDE0B8"/>
</linearGradient>
<clipPath id="clip0_801_51">
<rect width="512" height="512" fill="white"/>
</clipPath>
</defs>
</svg>
